name C:\Users\u0101727\Documents\MyRepositories\upper-imu-dc\Results\main_tracking\Case_42\FLX01_angularVelocities_groundFrame.mot
datacolumns 4
datarows 58
range 5.01000000 5.58000000
endheader 
time	radius_imu_x	radius_imu_y	radius_imu_z	
          5.01000000	          0.97964900	         -3.19663916	         -1.41202413	
          5.02000000	          1.00610203	         -3.30255733	         -1.37838330	
          5.03000000	          1.03121502	         -3.40857405	         -1.34218197	
          5.04000000	          1.05285725	         -3.51111871	         -1.30672520	
          5.05000000	          1.06636324	         -3.61001752	         -1.27229818	
          5.06000000	          1.07438860	         -3.70511346	         -1.23797020	
          5.07000000	          1.07595455	         -3.79526861	         -1.20381841	
          5.08000000	          1.07033558	         -3.87950717	         -1.17017230	
          5.09000000	          1.05678879	         -3.95687834	         -1.13740644	
          5.10000000	          1.03478318	         -4.02656666	         -1.10597484	
          5.11000000	          1.00421149	         -4.08803914	         -1.07631369	
          5.12000000	          0.96509752	         -4.14092498	         -1.04901425	
          5.13000000	          0.91911855	         -4.18594749	         -1.02423033	
          5.14000000	          0.86357993	         -4.22149071	         -1.00387599	
          5.15000000	          0.81235699	         -4.25496531	         -0.98871154	
          5.16000000	          0.77871020	         -4.29638001	         -0.97858645	
          5.17000000	          0.75266746	         -4.33133570	         -0.97437394	
          5.18000000	          0.71403428	         -4.35704253	         -0.97691821	
          5.19000000	          0.67322903	         -4.37708136	         -0.98201629	
          5.20000000	          0.63004974	         -4.39121442	         -0.98890703	
          5.21000000	          0.58637104	         -4.40049867	         -0.99647638	
          5.22000000	          0.54360794	         -4.40585107	         -1.00388287	
          5.23000000	          0.50324204	         -4.40831073	         -1.01039048	
          5.24000000	          0.46652886	         -4.40884505	         -1.01542746	
          5.25000000	          0.43444550	         -4.40828902	         -1.01858777	
          5.26000000	          0.40763422	         -4.40728434	         -1.01963491	
          5.27000000	          0.38641113	         -4.40626321	         -1.01848841	
          5.28000000	          0.37081726	         -4.40546726	         -1.01519715	
          5.29000000	          0.36069647	         -4.40499283	         -1.00990379	
          5.30000000	          0.35577556	         -4.40484524	         -1.00280866	
          5.31000000	          0.35572996	         -4.40498796	         -0.99413952	
          5.32000000	          0.36022906	         -4.40538026	         -0.98412983	
          5.33000000	          0.36896168	         -4.40600143	         -0.97300568	
          5.34000000	          0.38164279	         -4.40686077	         -0.96098046	
          5.35000000	          0.39800445	         -4.40799377	         -0.94825617	
          5.36000000	          0.41777723	         -4.40944776	         -0.93502847	
          5.37000000	          0.44066897	         -4.41126170	         -0.92149288	
          5.38000000	          0.46634522	         -4.41344334	         -0.90785033	
          5.39000000	          0.49441329	         -4.41594558	         -0.89431180	
          5.40000000	          0.52441135	         -4.41864423	         -0.88110193	
          5.41000000	          0.55580363	         -4.42131892	         -0.86846187	
          5.42000000	          0.58798076	         -4.42363775	         -0.85665188	
          5.43000000	          0.62026420	         -4.42514524	         -0.84595398	
          5.44000000	          0.65191497	         -4.42525542	         -0.83667394	
          5.45000000	          0.68214860	         -4.42325342	         -0.82914051	
          5.46000000	          0.71015729	         -4.41830850	         -0.82370009	
          5.47000000	          0.73513793	         -4.40949822	         -0.82070668	
          5.48000000	          0.75632287	         -4.39584031	         -0.82050819	
          5.49000000	          0.77300900	         -4.37632634	         -0.82343166	
          5.50000000	          0.78458167	         -4.34995172	         -0.82977002	
          5.51000000	          0.79053240	         -4.31573937	         -0.83977160	
          5.52000000	          0.79047236	         -4.27275959	         -0.85363176	
          5.53000000	          0.78414578	         -4.22015233	         -0.87148378	
          5.54000000	          0.77144620	         -4.15715805	         -0.89338713	
          5.55000000	          0.75243517	         -4.08315939	         -0.91931283	
          5.56000000	          0.72736134	         -3.99773314	         -0.94912739	
          5.57000000	          0.69667695	         -3.90070987	         -0.98257648	
          5.58000000	          0.66104855	         -3.79223741	         -1.01926959	
